<svg xmlns="http://www.w3.org/2000/svg" width="31.213" height="31.213" viewBox="0 0 31.213 31.213"><defs><style>.a{fill:#d9620d;}</style></defs><g transform="translate(-1 -1)"><g transform="translate(1 1)"><path class="a" d="M32.213,23.89v7.283a1.04,1.04,0,0,1-1.04,1.04H2.04A1.04,1.04,0,0,1,1,31.173V23.89a1.04,1.04,0,0,1,2.081,0v6.243H30.132V23.89a1.04,1.04,0,1,1,2.081,0ZM15.871,25.146a1.04,1.04,0,0,0,1.471,0l10.4-10.4a1.04,1.04,0,1,0-1.471-1.471L17.647,21.9V2.04a1.04,1.04,0,1,0-2.081,0V21.9L6.938,13.27a1.04,1.04,0,1,0-1.471,1.471Z" transform="translate(-1 -1)"/></g></g></svg>