<svg xmlns="http://www.w3.org/2000/svg" width="121.091" height="42.482" viewBox="0 0 121.091 42.482"><defs><style>.a{fill:#fff;}.b{fill:none;}</style></defs><g transform="translate(-16.6 -17.8)"><g transform="translate(70.176 17.8)"><g transform="translate(0.095 25.034)"><path class="a" d="M76.14,44.295h.948L74.812,46.76l2.845,2.75H76.614l-2.655-2.56v2.56H73.2V44.2h.759v2.371Z" transform="translate(-73.2 -44.2)"/><path class="a" d="M85.345,44.2a2.716,2.716,0,0,1,1.991.759,2.534,2.534,0,0,1,0,3.793,3.124,3.124,0,0,1-2.086.759,3.06,3.06,0,0,1-1.991-.759,2.312,2.312,0,0,1-.759-1.9,3.06,3.06,0,0,1,.759-1.991A3.89,3.89,0,0,1,85.345,44.2Zm0,.759a2.153,2.153,0,0,0-1.517.569,1.992,1.992,0,0,0,1.422,3.414,2.325,2.325,0,0,0,1.517-.569,2.062,2.062,0,0,0,0-2.845A1.664,1.664,0,0,0,85.345,44.959Z" transform="translate(-73.681 -44.2)"/><path class="a" d="M98.977,44.3h.759v5.31h-.759V45.533l-1.612,2.086h-.095l-1.612-2.086V49.61H94.9V44.3h.759l1.707,2.181Z" transform="translate(-74.323 -44.205)"/><path class="a" d="M110.672,44.3h.759v5.31h-.759V45.533l-1.612,2.086h-.19l-1.612-2.086V49.61H106.5V44.3h.759l1.707,2.181Z" transform="translate(-74.923 -44.205)"/><path class="a" d="M121.9,44.3h.759v3.034a2.643,2.643,0,0,1-.095.948c-.095.19-.095.379-.19.474s-.19.284-.284.379a2.568,2.568,0,0,1-3.224,0,1.309,1.309,0,0,1-.284-.379.724.724,0,0,1-.19-.474,2.379,2.379,0,0,1-.095-.948V44.3h.759v3.034a2.538,2.538,0,0,0,.19,1.043,1.143,1.143,0,0,0,.474.474,1.894,1.894,0,0,0,.853.19,1.511,1.511,0,0,0,1.138-.379.521.521,0,0,0,.284-.474,2.1,2.1,0,0,0,.095-.853V44.3Z" transform="translate(-75.534 -44.205)"/><path class="a" d="M133.577,44.3h.759v5.31h-.664l-3.509-4.077V49.61H129.5V44.3h.569l3.6,4.077V44.3Z" transform="translate(-76.114 -44.205)"/><path class="a" d="M141.1,44.3h2.94v.664h-2.181v1.612h2.181v.664h-2.181v1.612h2.276v.664H141.1Z" transform="translate(-76.714 -44.205)"/></g><path class="a" d="M87.988,37.917l-1.8,1.517c-.19-.19-.948-1.043-2.276-2.465-.948-1.138-2.371-2.655-4.172-4.741a1.739,1.739,0,0,0-.948-.664,20.06,20.06,0,0,0-3.6-.095v-1.8a25.614,25.614,0,0,0,3.888-.095,3.82,3.82,0,0,0,1.9-1.138,4.253,4.253,0,0,0,.948-1.233,3.761,3.761,0,0,0,.379-1.9,3.2,3.2,0,0,0-.569-1.9,2.827,2.827,0,0,0-1.612-1.138,5.537,5.537,0,0,0-1.707-.379c-.569,0-1.138-.095-1.707-.095H75.565c0,1.8-.095,3.414-.095,4.836v8.25a41.682,41.682,0,0,0,.095,4.267H73.195V27.012c0-1.328,0-3.6-.095-7.112h3.793a21.575,21.575,0,0,1,2.465.19,6.906,6.906,0,0,1,2.276.664,4.739,4.739,0,0,1,2.276,1.8,4.517,4.517,0,0,1,.853,2.75,5.634,5.634,0,0,1-1.233,3.509,6.683,6.683,0,0,1-2.371,1.9V30.8c1.328,1.517,2.75,3.129,4.362,4.741C87.039,36.968,87.893,37.822,87.988,37.917Z" transform="translate(-73.1 -17.909)"/><path class="a" d="M101.017,31.507H90.681a5.371,5.371,0,0,0,.664,2.75,4.985,4.985,0,0,0,1.9,2.086,6.621,6.621,0,0,0,1.9.759,9.542,9.542,0,0,0,2.56.284h1.517a5.241,5.241,0,0,0,.853-.095l-.284,1.991H97.508a12.608,12.608,0,0,1-3.983-.569,7.1,7.1,0,0,1-4.362-3.888,6.477,6.477,0,0,1-.664-3.034,9.091,9.091,0,0,1,.474-2.94A9.245,9.245,0,0,1,90.4,26.386a5.654,5.654,0,0,1,2.086-1.517,6.7,6.7,0,0,1,4.931-.19,4.711,4.711,0,0,1,1.8,1.233,5.365,5.365,0,0,1,1.328,2.276A12.192,12.192,0,0,1,101.017,31.507Zm-2.181-1.612A5.238,5.238,0,0,0,97.6,27.05a3.5,3.5,0,0,0-2.56-1.043,3.725,3.725,0,0,0-2.655,1.043,5.159,5.159,0,0,0-1.517,2.845Z" transform="translate(-73.897 -18.136)"/><path class="a" d="M116.622,31.56a7.109,7.109,0,0,1-1.138,4.077,6.955,6.955,0,0,1-3.129,2.56,8.908,8.908,0,0,1-2.94.759,22.505,22.505,0,0,1-3.888.284H104.2c0-.759,0-2.086.095-4.077V22.931c0-1.612,0-3.224-.095-4.931h2.276v6.638a16.165,16.165,0,0,1,4.741.569,8.4,8.4,0,0,1,2.94,1.328,5.976,5.976,0,0,1,1.9,2.181A6.622,6.622,0,0,1,116.622,31.56Zm-2.276.095a4.556,4.556,0,0,0-.948-2.94,6.1,6.1,0,0,0-2.56-1.707,11.026,11.026,0,0,0-1.707-.379,12.851,12.851,0,0,0-1.9-.19h-.664v10.9a13.138,13.138,0,0,0,2.845-.284,8.031,8.031,0,0,0,2.276-.759,5.1,5.1,0,0,0,2.086-1.9A7.411,7.411,0,0,0,114.346,31.655Z" transform="translate(-74.709 -17.81)"/><path class="a" d="M122.36,21.765H119.8V19.3h2.56Zm-.095,17.258H119.99V28.688c0-1.138,0-2.56-.095-4.172h2.276c0,1.422,0,2.655-.095,3.888v8.629A15.868,15.868,0,0,1,122.265,39.024Z" transform="translate(-75.517 -17.878)"/><path class="a" d="M128.376,38.946H126.1c0-.095,0-1.517.095-4.172V23.679c0-1.707,0-3.7-.095-5.879h2.276c0,1.517,0,3.224-.095,5.121V35.437C128.376,37.713,128.376,38.851,128.376,38.946Z" transform="translate(-75.843 -17.8)"/><path class="a" d="M143.517,39.236h-1.328c-1.8,0-3.224-.095-4.267-.19a12.454,12.454,0,0,1-3.034-.948,6.864,6.864,0,0,1-2.94-2.465A6.191,6.191,0,0,1,131,32.219a6.921,6.921,0,0,1,1.138-3.888,7.517,7.517,0,0,1,3.224-2.655,11.179,11.179,0,0,1,2.845-.853,17.46,17.46,0,0,1,3.129-.284V17.9h2.276V34.968C143.517,36.581,143.517,38,143.517,39.236Zm-2.181-10.146V26.434a12.873,12.873,0,0,0-2.75.284,9.952,9.952,0,0,0-2.181.664,5.575,5.575,0,0,0-2.276,1.9,4.938,4.938,0,0,0-.759,2.845,4.769,4.769,0,0,0,.759,2.56,6.608,6.608,0,0,0,1.9,1.707,5.873,5.873,0,0,0,2.276.759,12,12,0,0,0,2.655.284h.379V29.089Z" transform="translate(-76.096 -17.805)"/><path class="a" d="M87.988,37.917l-1.8,1.517c-.19-.19-.948-1.043-2.276-2.465-.948-1.138-2.371-2.655-4.172-4.741a1.739,1.739,0,0,0-.948-.664,20.06,20.06,0,0,0-3.6-.095v-1.8a25.614,25.614,0,0,0,3.888-.095,3.82,3.82,0,0,0,1.9-1.138,4.253,4.253,0,0,0,.948-1.233,3.761,3.761,0,0,0,.379-1.9,3.2,3.2,0,0,0-.569-1.9,2.827,2.827,0,0,0-1.612-1.138,5.537,5.537,0,0,0-1.707-.379c-.569,0-1.138-.095-1.707-.095H75.565c0,1.8-.095,3.414-.095,4.836v8.25a41.682,41.682,0,0,0,.095,4.267H73.195V27.012c0-1.328,0-3.6-.095-7.112h3.793a21.575,21.575,0,0,1,2.465.19,6.906,6.906,0,0,1,2.276.664,4.739,4.739,0,0,1,2.276,1.8,4.517,4.517,0,0,1,.853,2.75,5.634,5.634,0,0,1-1.233,3.509,6.683,6.683,0,0,1-2.371,1.9V30.8c1.328,1.517,2.75,3.129,4.362,4.741C87.039,36.968,87.893,37.822,87.988,37.917Z" transform="translate(-73.1 -17.909)"/><path class="a" d="M101.017,31.507H90.681a5.371,5.371,0,0,0,.664,2.75,4.985,4.985,0,0,0,1.9,2.086,6.621,6.621,0,0,0,1.9.759,9.542,9.542,0,0,0,2.56.284h1.517a5.241,5.241,0,0,0,.853-.095l-.284,1.991H97.508a12.608,12.608,0,0,1-3.983-.569,7.1,7.1,0,0,1-4.362-3.888,6.477,6.477,0,0,1-.664-3.034,9.091,9.091,0,0,1,.474-2.94A9.245,9.245,0,0,1,90.4,26.386a5.654,5.654,0,0,1,2.086-1.517,6.7,6.7,0,0,1,4.931-.19,4.711,4.711,0,0,1,1.8,1.233,5.365,5.365,0,0,1,1.328,2.276A12.192,12.192,0,0,1,101.017,31.507Zm-2.181-1.612A5.238,5.238,0,0,0,97.6,27.05a3.5,3.5,0,0,0-2.56-1.043,3.725,3.725,0,0,0-2.655,1.043,5.159,5.159,0,0,0-1.517,2.845Z" transform="translate(-73.897 -18.136)"/><path class="a" d="M116.622,31.56a7.109,7.109,0,0,1-1.138,4.077,6.955,6.955,0,0,1-3.129,2.56,8.908,8.908,0,0,1-2.94.759,22.505,22.505,0,0,1-3.888.284H104.2c0-.759,0-2.086.095-4.077V22.931c0-1.612,0-3.224-.095-4.931h2.276v6.638a16.165,16.165,0,0,1,4.741.569,8.4,8.4,0,0,1,2.94,1.328,5.976,5.976,0,0,1,1.9,2.181A6.622,6.622,0,0,1,116.622,31.56Zm-2.276.095a4.556,4.556,0,0,0-.948-2.94,6.1,6.1,0,0,0-2.56-1.707,11.026,11.026,0,0,0-1.707-.379,12.851,12.851,0,0,0-1.9-.19h-.664v10.9a13.138,13.138,0,0,0,2.845-.284,8.031,8.031,0,0,0,2.276-.759,5.1,5.1,0,0,0,2.086-1.9A7.411,7.411,0,0,0,114.346,31.655Z" transform="translate(-74.709 -17.81)"/><path class="a" d="M122.36,21.765H119.8V19.3h2.56Zm-.095,17.258H119.99V28.688c0-1.138,0-2.56-.095-4.172h2.276c0,1.422,0,2.655-.095,3.888v8.629A15.868,15.868,0,0,1,122.265,39.024Z" transform="translate(-75.517 -17.878)"/><path class="a" d="M128.376,38.946H126.1c0-.095,0-1.517.095-4.172V23.679c0-1.707,0-3.7-.095-5.879h2.276c0,1.517,0,3.224-.095,5.121V35.437C128.376,37.713,128.376,38.851,128.376,38.946Z" transform="translate(-75.843 -17.8)"/><path class="a" d="M143.517,39.236h-1.328c-1.8,0-3.224-.095-4.267-.19a12.454,12.454,0,0,1-3.034-.948,6.864,6.864,0,0,1-2.94-2.465A6.191,6.191,0,0,1,131,32.219a6.921,6.921,0,0,1,1.138-3.888,7.517,7.517,0,0,1,3.224-2.655,11.179,11.179,0,0,1,2.845-.853,17.46,17.46,0,0,1,3.129-.284V17.9h2.276V34.968C143.517,36.581,143.517,38,143.517,39.236Zm-2.181-10.146V26.434a12.873,12.873,0,0,0-2.75.284,9.952,9.952,0,0,0-2.181.664,5.575,5.575,0,0,0-2.276,1.9,4.938,4.938,0,0,0-.759,2.845,4.769,4.769,0,0,0,.759,2.56,6.608,6.608,0,0,0,1.9,1.707,5.873,5.873,0,0,0,2.276.759,12,12,0,0,0,2.655.284h.379V29.089Z" transform="translate(-76.096 -17.805)"/></g><g transform="translate(16.6 17.895)"><path class="a" d="M28.8,25.691v.474a2.884,2.884,0,0,0,1.328-.664,3.309,3.309,0,0,0,.569-.853,1.022,1.022,0,0,0,0-.948Z" transform="translate(-17.231 -18.2)"/><path class="a" d="M28.795,25.35l1.8-1.8c0-.095.095-.379,0-.569a1.309,1.309,0,0,0-.284-.379L28.7,24.307Z" transform="translate(-17.226 -18.143)"/><path class="a" d="M28.8,24.081l1.612-1.517a1.031,1.031,0,0,0-.095-.474c-.095-.19-.19-.19-.284-.19l-1.138,1.328Z" transform="translate(-17.231 -18.107)"/><path class="a" d="M28.5,20.4a.294.294,0,0,1-.095.19c-.095.095-.284.379-.379.379a3.31,3.31,0,0,0-1.138,1.422,2.53,2.53,0,0,0,.284,2.75A1.481,1.481,0,0,0,28.5,25.9V20.4Z" transform="translate(-17.118 -18.029)"/><path class="a" d="M28.8,22.807l1.138-1.138c-.095-.095-.095-.379-.19-.474a.348.348,0,0,0-.284-.095l-.664.759Z" transform="translate(-17.231 -18.066)"/><path class="a" d="M29.369,20.969c-.095-.095-.284-.19-.379-.284a1.364,1.364,0,0,1-.19-.284h0v1.138Z" transform="translate(-17.231 -18.029)"/><path class="a" d="M30.779,28.8l-.379.379a2.391,2.391,0,0,0,1.422.474,4.173,4.173,0,0,0,.948-.19,1.043,1.043,0,0,0,.664-.664Z" transform="translate(-17.314 -18.464)"/><path class="a" d="M31,28.553h2.56c.095-.095.379-.19.474-.379a.855.855,0,0,0,.095-.474l-2.371.095Z" transform="translate(-17.345 -18.407)"/><path class="a" d="M31.9,27.553h2.181a.591.591,0,0,0,.284-.474c0-.19,0-.284-.095-.379l-1.8.095Z" transform="translate(-17.392 -18.355)"/><path class="a" d="M34.249,24.9a.415.415,0,0,1-.284.095H33.4a3.278,3.278,0,0,0-1.9.19,2.942,2.942,0,0,0-1.8,2.086,1.589,1.589,0,0,0,.379,1.517L34.249,24.9Z" transform="translate(-17.276 -18.262)"/><path class="a" d="M32.8,26.659h1.612c0-.095.19-.284.19-.474a.348.348,0,0,0-.095-.284l-.948.095Z" transform="translate(-17.438 -18.314)"/><path class="a" d="M34.559,25.753a4.107,4.107,0,0,1-.095-.474.981.981,0,0,1,.095-.379h0l-.759.853Z" transform="translate(-17.49 -18.262)"/><path class="a" d="M26.7,28.555l.379.379a2.391,2.391,0,0,0,.474-1.422,4.173,4.173,0,0,0-.19-.948A1.043,1.043,0,0,0,26.7,25.9Z" transform="translate(-17.123 -18.314)"/><path class="a" d="M26.553,28.329v-2.56c-.095-.095-.19-.379-.379-.474A.855.855,0,0,0,25.7,25.2l.095,2.371Z" transform="translate(-17.071 -18.278)"/><path class="a" d="M25.553,27.365V25.184a.591.591,0,0,0-.474-.284c-.19,0-.284,0-.379.095l.095,1.8Z" transform="translate(-17.019 -18.262)"/><path class="a" d="M22.8,24.9a.415.415,0,0,1,.095.284v.569a3.278,3.278,0,0,0,.19,1.9,2.942,2.942,0,0,0,2.086,1.8,1.589,1.589,0,0,0,1.517-.379L22.8,24.9Z" transform="translate(-16.921 -18.262)"/><path class="a" d="M24.659,26.5V24.89c-.095,0-.284-.19-.474-.19a.348.348,0,0,0-.284.095l.095.948Z" transform="translate(-16.978 -18.252)"/><path class="a" d="M23.753,24.9a4.107,4.107,0,0,1-.474.095A.981.981,0,0,1,22.9,24.9h0l.853.759Z" transform="translate(-16.926 -18.262)"/><path class="a" d="M25.891,31.791h.474a2.884,2.884,0,0,0-.664-1.328,3.309,3.309,0,0,0-.853-.569,1.022,1.022,0,0,0-.948,0Z" transform="translate(-16.978 -18.515)"/><path class="a" d="M25.645,31.8l-1.9-1.8c-.095,0-.379-.095-.569,0a1.309,1.309,0,0,0-.379.284l1.707,1.612Z" transform="translate(-16.921 -18.524)"/><path class="a" d="M24.276,31.812,22.759,30.2a1.031,1.031,0,0,0-.474.095c-.284.19-.284.284-.284.379l1.328,1.138Z" transform="translate(-16.879 -18.537)"/><path class="a" d="M20.6,32a.294.294,0,0,1,.19.095c.095.095.379.284.379.379a3.31,3.31,0,0,0,1.422,1.138,2.53,2.53,0,0,0,2.75-.284A1.481,1.481,0,0,0,26.1,32Z" transform="translate(-16.807 -18.63)"/><path class="a" d="M23.007,31.838,21.869,30.7c-.095.095-.379.095-.474.19a.348.348,0,0,0-.095.284l.759.664Z" transform="translate(-16.843 -18.562)"/><path class="a" d="M21.169,31.3c-.095.095-.19.284-.284.379a1.364,1.364,0,0,1-.284.19h1.138Z" transform="translate(-16.807 -18.593)"/><path class="a" d="M31.374,32.1H30.9a2.885,2.885,0,0,0,.664,1.328,3.309,3.309,0,0,0,.853.569,1.022,1.022,0,0,0,.948,0Z" transform="translate(-17.34 -18.635)"/><path class="a" d="M31.6,32.095l1.8,1.8c.095,0,.379.095.569,0a1.309,1.309,0,0,0,.379-.284L32.643,32Z" transform="translate(-17.376 -18.63)"/><path class="a" d="M33,32.1l1.517,1.612a1.031,1.031,0,0,0,.474-.095c.19-.095.19-.19.19-.284L33.948,32.1Z" transform="translate(-17.449 -18.635)"/><path class="a" d="M36.5,31.9a.294.294,0,0,1-.19-.095c-.095-.095-.379-.284-.379-.379a3.31,3.31,0,0,0-1.422-1.138,2.53,2.53,0,0,0-2.75.284A1.481,1.481,0,0,0,31,31.9Z" transform="translate(-17.345 -18.527)"/><path class="a" d="M34.3,32.1l1.138,1.138c.095-.095.379-.095.474-.19a.348.348,0,0,0,.095-.284l-.759-.664Z" transform="translate(-17.516 -18.635)"/><path class="a" d="M36.069,32.669c.095-.095.19-.284.284-.379a1.364,1.364,0,0,1,.284-.19H35.5Z" transform="translate(-17.578 -18.635)"/><g transform="translate(0.474 0.284)"><path class="b" d="M58.633,19.148a10.077,10.077,0,0,0-1.328-.284c-1.138-.19-2.845-.284-4.741-.379-3.983-.19-9.293-.284-14.508-.284-5.121,0-10.241.095-14.129.284a34.811,34.811,0,0,0-6.827.759,88.207,88.207,0,0,0,1.328,15.836c4.362,0,4.741,4.267,8.629,4.931l.569-8.629-1.517-.095V31l1.612-.095.095-1.138-1.233-1.328.19-.19,1.138,1.043.19-3.6h.284l.19,3.6,1.138-1.043.19.19-1.233,1.328.095,1.138L30.375,31v.284l-1.517.095.569,8.629c3.983-.664,4.362-4.931,8.914-4.931s4.931,4.267,8.819,4.931l.569-8.629-1.517-.095a1.671,1.671,0,0,1-.759,1.328,2.936,2.936,0,0,1-2.75.284A2.49,2.49,0,0,1,41.28,31.76l-.379-.379a6.533,6.533,0,0,0-.664-.095h0l5.689.095V31.1h-.474l-1.991-1.9a1.022,1.022,0,0,1,.948,0,1.929,1.929,0,0,1,.853.569,2.521,2.521,0,0,1,.664,1.328L47.539,31l.095-1.138L46.4,28.536a1.589,1.589,0,0,1-1.517.379,2.462,2.462,0,0,1-2.086-1.8,3.2,3.2,0,0,1-.19-1.9v-.569a.415.415,0,0,0-.095-.284h0L46.4,28.441l.19-.19-.379-.379-.095-2.655a1.043,1.043,0,0,1,.664.664,1.875,1.875,0,0,1,.19.948,2.391,2.391,0,0,1-.474,1.422l1.138,1.043.19-3.6a1.671,1.671,0,0,1-1.328-.759,2.936,2.936,0,0,1-.284-2.75,2.49,2.49,0,0,1,1.138-1.422l.379-.379.095-.19h0l-.095,5.595h.284v-.474l1.9-1.991a1.022,1.022,0,0,1,0,.948,1.928,1.928,0,0,1-.569.853,2.521,2.521,0,0,1-1.328.664l.19,3.6,1.138-1.043a1.589,1.589,0,0,1-.379-1.517,2.462,2.462,0,0,1,1.8-2.086,3.2,3.2,0,0,1,1.9-.19h.569a.415.415,0,0,0,.284-.095h0l-4.077,3.983.19.19L50,28.251l2.655-.095A1.043,1.043,0,0,1,52,28.82a4.173,4.173,0,0,1-.948.19,2.391,2.391,0,0,1-1.422-.474L48.3,29.958l.095,1.138L50,31.191a1.671,1.671,0,0,1,.759-1.328,3.034,3.034,0,0,1,4.172.853l.379.379.19.095h0L49.909,31.1v.284h.474l1.991,1.9a1.022,1.022,0,0,1-.948,0,1.929,1.929,0,0,1-.853-.569,2.521,2.521,0,0,1-.664-1.328l-1.517.095.569,8.629c3.888-.664,4.267-4.931,8.724-4.931a88.207,88.207,0,0,0,1.328-15.836h0C58.918,19.243,58.823,19.243,58.633,19.148Zm-18.4,12.043h0a1.364,1.364,0,0,0,.284-.19c.095-.095.284-.284.284-.379l.569.569Zm1.422,0-.759-.664c0-.095.095-.19.095-.284a1,1,0,0,1,.474-.19l1.138,1.138Zm1.043-1.9c.19-.095.474,0,.569,0l1.8,1.8H44.03l-1.707-1.612C42.513,29.484,42.513,29.389,42.7,29.295Zm1.138,1.9h-.948l-1.328-1.138c.095-.095.095-.19.19-.284a.48.48,0,0,1,.474-.095Zm-.569-5.879-.853-.759h0a.981.981,0,0,0,.379.095.711.711,0,0,0,.474-.095Zm.095.19-.095-.948c.095,0,.19-.095.284-.095a.724.724,0,0,1,.474.19V26.26Zm1.612,1.517-.664-.664-.095-1.8c.095,0,.19-.095.379-.095a.591.591,0,0,1,.474.284Zm.948.948-.759-.759-.095-2.371a1.269,1.269,0,0,1,.474.095c.19.095.284.379.379.474Zm2.086-7.681h0a1.364,1.364,0,0,0,.19.284c.095.095.284.284.379.284l-.569.569Zm0,1.328.664-.759c.095,0,.19.095.284.095a1,1,0,0,1,.19.474l-1.138,1.138Zm0,1.328,1.138-1.328c.095.095.19.095.284.19a.48.48,0,0,1,.095.474l-1.612,1.517Zm1.9.379-1.8,1.8V24.079l1.612-1.707a1.309,1.309,0,0,1,.284.379C50,22.941,49.909,23.226,49.909,23.321Zm3.6,1.233h0a.981.981,0,0,0-.095.379.711.711,0,0,0,.095.474h-.759Zm-.379,3.129c-.095.19-.379.284-.474.379H50.1l.759-.759,2.371-.095A.855.855,0,0,1,53.133,27.682Zm.095-.474H51.047l.664-.664,1.8-.095c0,.095.095.19.095.379C53.513,27.019,53.323,27.114,53.228,27.208Zm.284-.948H51.9l.664-.759.948-.095c0,.095.095.19.095.284A3.353,3.353,0,0,1,53.513,26.26Zm-.379,7.017c-.19.095-.474,0-.569,0l-1.8-1.8h1.043l1.707,1.612C53.418,33.088,53.323,33.182,53.133,33.277Zm.948-.379a.48.48,0,0,1-.474.095L52.09,31.381h.948l1.328,1.138C54.271,32.613,54.271,32.708,54.082,32.9Zm.759-.664a1,1,0,0,1-.474.19l-1.138-1.138h.948l.759.664C54.935,32.139,54.935,32.139,54.84,32.234Zm.759-.853a1.364,1.364,0,0,0-.284.19c-.095.095-.284.284-.284.379l-.569-.569Z" transform="translate(-17.1 -18.2)"/><path class="a" d="M51.6,24.748a1.022,1.022,0,0,0,0-.948l-1.9,1.991v.474a2.884,2.884,0,0,0,1.328-.664A2.691,2.691,0,0,0,51.6,24.748Z" transform="translate(-18.787 -18.49)"/><path class="a" d="M51.412,22.6,49.8,24.307V25.35l1.8-1.8c0-.095.095-.379,0-.569S51.412,22.695,51.412,22.6Z" transform="translate(-18.792 -18.428)"/><path class="a" d="M51.222,21.99c-.095-.19-.19-.19-.284-.19L49.8,23.128v.948l1.612-1.517C51.317,22.369,51.412,22.179,51.222,21.99Z" transform="translate(-18.792 -18.386)"/><path class="a" d="M49.5,20.4a.294.294,0,0,1-.095.19c-.095.095-.284.379-.379.379a3.31,3.31,0,0,0-1.138,1.422,2.53,2.53,0,0,0,.284,2.75A1.481,1.481,0,0,0,49.5,25.9V20.4Z" transform="translate(-18.679 -18.314)"/><path class="a" d="M50.648,21.195a.348.348,0,0,0-.284-.095l-.664.759v.948l1.138-1.138C50.743,21.574,50.743,21.29,50.648,21.195Z" transform="translate(-18.787 -18.35)"/><path class="a" d="M49.89,20.684a1.364,1.364,0,0,1-.19-.284h0v1.138l.569-.569C50.174,20.969,49.984,20.779,49.89,20.684Z" transform="translate(-18.787 -18.314)"/><path class="a" d="M53.771,29.464a1.043,1.043,0,0,0,.664-.664l-2.655.095-.379.379a2.391,2.391,0,0,0,1.422.474A5.892,5.892,0,0,1,53.771,29.464Z" transform="translate(-18.875 -18.749)"/><path class="a" d="M51.9,28.553h2.56c.095-.095.379-.19.474-.379a.855.855,0,0,0,.095-.474l-2.371.095Z" transform="translate(-18.901 -18.692)"/><path class="a" d="M53.564,26.89l-.664.664h2.181a.591.591,0,0,0,.284-.474c0-.19,0-.284-.095-.379Z" transform="translate(-18.953 -18.64)"/><path class="a" d="M55.249,24.9a.415.415,0,0,1-.284.095H54.4a3.278,3.278,0,0,0-1.9.19,2.942,2.942,0,0,0-1.8,2.086,1.589,1.589,0,0,0,.379,1.517L55.249,24.9Z" transform="translate(-18.837 -18.547)"/><path class="a" d="M54.464,26l-.664.759h1.612c0-.095.19-.284.19-.474A.348.348,0,0,0,55.507,26Z" transform="translate(-18.999 -18.604)"/><path class="a" d="M55.464,25.279a.981.981,0,0,1,.095-.379h0l-.759.853h.759A.417.417,0,0,1,55.464,25.279Z" transform="translate(-19.051 -18.547)"/><path class="a" d="M48.264,26.464A1.043,1.043,0,0,0,47.6,25.8l.095,2.655.379.379a2.391,2.391,0,0,0,.474-1.422A2.512,2.512,0,0,0,48.264,26.464Z" transform="translate(-18.678 -18.593)"/><path class="a" d="M47.074,25.295A.855.855,0,0,0,46.6,25.2l.095,2.371.759.759v-2.56C47.359,25.674,47.264,25.39,47.074,25.295Z" transform="translate(-18.627 -18.562)"/><path class="a" d="M45.7,24.9l.095,1.8.664.664V25.184a.591.591,0,0,0-.474-.284Z" transform="translate(-18.58 -18.547)"/><path class="a" d="M43.7,24.9a.415.415,0,0,1,.095.284v.569a3.278,3.278,0,0,0,.19,1.9,2.942,2.942,0,0,0,2.086,1.8,1.589,1.589,0,0,0,1.517-.379L43.7,24.9Z" transform="translate(-18.477 -18.547)"/><path class="a" d="M45.084,24.8a.348.348,0,0,0-.284.095l.095.948.664.664V24.895A4.107,4.107,0,0,0,45.084,24.8Z" transform="translate(-18.534 -18.542)"/><path class="a" d="M43.8,24.9h0l.853.853v-.759a4.107,4.107,0,0,1-.474.095A.587.587,0,0,0,43.8,24.9Z" transform="translate(-18.482 -18.547)"/><path class="a" d="M45.848,29.894a1.022,1.022,0,0,0-.948,0l1.991,1.9h.474a2.884,2.884,0,0,0-.664-1.328A3.309,3.309,0,0,0,45.848,29.894Z" transform="translate(-18.539 -18.8)"/><path class="a" d="M46.55,31.8l-1.8-1.8c-.095,0-.379-.095-.569,0a1.309,1.309,0,0,0-.379.284l1.707,1.612Z" transform="translate(-18.482 -18.808)"/><path class="a" d="M43.19,30.39c-.19.095-.19.19-.19.284l1.328,1.138h.948L43.759,30.2A.7.7,0,0,0,43.19,30.39Z" transform="translate(-18.44 -18.821)"/><path class="a" d="M41.5,32a.294.294,0,0,1,.19.095c.095.095.379.284.379.379a3.311,3.311,0,0,0,1.422,1.138,2.53,2.53,0,0,0,2.75-.284A1.481,1.481,0,0,0,47,32Z" transform="translate(-18.363 -18.914)"/><path class="a" d="M42.395,30.99a.348.348,0,0,0-.095.284l.759.664h.948L42.869,30.8C42.679,30.8,42.49,30.8,42.395,30.99Z" transform="translate(-18.404 -18.852)"/><path class="a" d="M41.884,31.679a1.364,1.364,0,0,1-.284.19h1.138l-.569-.569C42.074,31.395,41.979,31.584,41.884,31.679Z" transform="translate(-18.368 -18.878)"/><path class="a" d="M53.317,34a1.022,1.022,0,0,0,.948,0l-1.991-1.9H51.8a2.884,2.884,0,0,0,.664,1.328A1.5,1.5,0,0,0,53.317,34Z" transform="translate(-18.896 -18.919)"/><path class="a" d="M52.6,32.095l1.8,1.8c.095,0,.379.095.569,0a1.309,1.309,0,0,0,.379-.284L53.643,32Z" transform="translate(-18.937 -18.914)"/><path class="a" d="M53.9,32.1l1.517,1.612a1.031,1.031,0,0,0,.474-.095c.19-.095.19-.19.19-.284L54.943,32.1Z" transform="translate(-19.004 -18.919)"/><path class="a" d="M57.4,31.9a.294.294,0,0,1-.19-.095c-.095-.095-.379-.284-.379-.379a3.311,3.311,0,0,0-1.422-1.138,2.53,2.53,0,0,0-2.75.284A1.481,1.481,0,0,0,51.9,31.9Z" transform="translate(-18.901 -18.812)"/><path class="a" d="M55.2,32.1l1.138,1.138c.095-.095.379-.095.474-.19a.348.348,0,0,0,.095-.284l-.759-.664Z" transform="translate(-19.072 -18.919)"/><path class="a" d="M57.069,32.669c.095-.095.19-.284.284-.379a1.364,1.364,0,0,1,.284-.19H56.5Z" transform="translate(-19.139 -18.919)"/></g><path class="b" d="M58.633,19.148a10.077,10.077,0,0,0-1.328-.284c-1.138-.19-2.845-.284-4.741-.379-3.983-.19-9.293-.284-14.508-.284-5.121,0-10.241.095-14.129.284a34.811,34.811,0,0,0-6.827.759,88.207,88.207,0,0,0,1.328,15.836c4.362,0,4.741,4.267,8.629,4.931l.569-8.629-1.517-.095V31l1.612-.095.095-1.138-1.233-1.328.19-.19,1.138,1.043.19-3.6h.284l.19,3.6,1.138-1.043.19.19-1.233,1.328.095,1.138L30.375,31v.284l-1.517.095.569,8.629c3.983-.664,4.362-4.931,8.914-4.931s4.931,4.267,8.819,4.931l.569-8.629-1.517-.095V31l1.612-.095.095-1.138-1.233-1.328.19-.19,1.138,1.043.19-3.6h.284l.19,3.6,1.138-1.043.19.19L48.3,29.958l.095,1.138L50,31.191v.284l-1.517.095.569,8.629c3.888-.664,4.267-4.931,8.724-4.931a88.206,88.206,0,0,0,1.328-15.836h0A1.263,1.263,0,0,0,58.633,19.148Z" transform="translate(-16.626 -17.916)"/><path class="a" d="M58.7,18.848c-2.276-.664-11.474-.948-20.767-.948-5.31,0-10.526.095-14.508.284-1.991.095-3.6.19-4.836.379-1.138.19-1.8.19-1.991.664,0,26.93,9.482,40.964,21.336,41.059,11.853,0,21.241-14.129,21.336-41.059C59.271,19.038,58.987,18.943,58.7,18.848ZM43.151,52.321c-.19.095-.474,0-.569,0l-1.8-1.8h1.043l1.707,1.612C43.435,52.132,43.341,52.227,43.151,52.321Zm.948-.474a.48.48,0,0,1-.474.095L42.108,50.33h.948l1.328,1.138C44.289,51.658,44.289,51.752,44.1,51.847Zm.759-.569a1,1,0,0,1-.474.19L43.246,50.33h.948l.759.664A.348.348,0,0,1,44.858,51.278Zm.759-.948a1.364,1.364,0,0,0-.284.19c-.095.095-.284.284-.284.379l-.569-.569Zm0-.095-5.689-.095v.284H40.4l1.991,1.9a1.022,1.022,0,0,1-.948,0,1.928,1.928,0,0,1-.853-.569,2.521,2.521,0,0,1-.664-1.328l-1.517.095.664,9.577-1.043.095L36.893,60.1l.664-9.672H35.944a1.671,1.671,0,0,1-.759,1.328,2.936,2.936,0,0,1-2.75.284A2.49,2.49,0,0,1,31.013,50.9l-.379-.379-.19-.095h0l5.689.095v-.284H35.66l-1.991-1.9a1.022,1.022,0,0,1,.948,0,1.929,1.929,0,0,1,.853.569,2.521,2.521,0,0,1,.664,1.328l1.612-.095L37.841,49l-1.233-1.328a1.589,1.589,0,0,1-1.517.379A2.462,2.462,0,0,1,33,46.253a3.2,3.2,0,0,1-.19-1.9v-.569a.415.415,0,0,0-.095-.284h0l3.888,4.077.19-.19-.379-.379-.095-2.655a1.043,1.043,0,0,1,.664.664,4.173,4.173,0,0,1,.19.948,2.391,2.391,0,0,1-.474,1.422l1.138,1.043.19-3.6a1.671,1.671,0,0,1-1.328-.759,2.936,2.936,0,0,1-.284-2.75A2.49,2.49,0,0,1,37.556,39.9l.379-.379.095-.19h0l-.095,5.689h.284v-.474l1.9-1.991a1.022,1.022,0,0,1,0,.948,1.929,1.929,0,0,1-.569.853,2.521,2.521,0,0,1-1.328.664h0l.19,3.6,1.138-1.043a1.589,1.589,0,0,1-.379-1.517,2.462,2.462,0,0,1,1.8-2.086,3.2,3.2,0,0,1,1.9-.19h.569a.415.415,0,0,0,.284-.095h0L39.642,47.58l.19.19.379-.379,2.655-.095a1.043,1.043,0,0,1-.664.664,1.875,1.875,0,0,1-.948.19,2.391,2.391,0,0,1-1.422-.474L38.6,49l.095,1.138,1.612.095a1.671,1.671,0,0,1,.759-1.328,3.034,3.034,0,0,1,4.172.853l.379.379v.095Zm-11.758,0H32.91L31.582,49.1c.095-.095.095-.19.19-.284a.48.48,0,0,1,.474-.095Zm-1.422-1.707a1.309,1.309,0,0,1,.379-.284c.19-.095.474,0,.569,0l1.8,1.8H34.143Zm.19,1.707h-.948l-.759-.664c0-.095.095-.19.095-.284a1,1,0,0,1,.474-.19Zm-1.233,0H30.255a1.364,1.364,0,0,0,.284-.19c.095-.095.284-.284.284-.379ZM32.436,43.5h0a.981.981,0,0,0,.379.095.711.711,0,0,0,.474-.095v.759Zm.948,0c.095,0,.19-.095.284-.095a.724.724,0,0,1,.474.19V45.21l-.759-.664Zm.853.095c.095,0,.19-.095.379-.095a.591.591,0,0,1,.474.284v2.181l-.664-.664Zm.853.284a1.269,1.269,0,0,1,.474.095c.19.095.284.379.379.474v2.56l-.759-.759Zm2.94-1.043v-.948l1.138-1.328c.095.095.19.095.284.19a.48.48,0,0,1,.095.474Zm1.707-1.422a1.309,1.309,0,0,1,.284.379c.095.19,0,.474,0,.569l-1.8,1.8V43.123Zm-1.707.19v-.948l.664-.759c.095,0,.19.095.284.095a1,1,0,0,1,.19.474Zm0-1.233V39.236h0a1.364,1.364,0,0,0,.19.284c.095.095.284.284.379.284Zm3.034,5.784.664-.664,1.8-.095c0,.095.095.19.095.379a.591.591,0,0,1-.284.474Zm2.181.095a1.031,1.031,0,0,1-.095.474c-.095.19-.379.284-.474.379h-2.56l.759-.759Zm.284-.948H41.918l.664-.759.948-.095c0,.095.095.19.095.284A3.353,3.353,0,0,1,43.53,45.3Zm0-.853h-.759l.759-.853h0a.981.981,0,0,0-.095.379A4.107,4.107,0,0,0,43.53,44.451Zm14.129-9.293c-4.457,0-4.836,4.267-8.724,4.931l-.569-8.629,1.517-.095v-.284l-1.612-.095V29.943L49.5,28.615l-.095-.19-1.138,1.043-.19-3.6H47.8l-.19,3.6L46.47,28.426l-.19.19,1.233,1.328-.095,1.138-1.612.095v.284l1.517.095-.569,8.629c-3.888-.664-4.267-4.931-8.819-4.931S33,39.615,29.022,40.184l-.569-8.629,1.517-.095v-.284l-1.612-.095-.095-1.138L29.5,28.615l.095-.19-1.138,1.043-.19-3.6h-.284l-.19,3.6-1.233-1.043-.19.19L27.6,29.943,27.5,31.081l-1.612.095v.284l1.517.095-.569,8.629c-3.888-.664-4.267-4.931-8.629-4.931a88.207,88.207,0,0,1-1.328-15.836c.19-.284,3.034-.664,6.827-.759,3.888-.19,9.008-.284,14.129-.284,5.31,0,10.526.095,14.508.284a45.6,45.6,0,0,1,4.741.379,10.077,10.077,0,0,1,1.328.284.415.415,0,0,1,.284.095h0A68.575,68.575,0,0,1,57.659,35.158Z" transform="translate(-16.6 -17.9)"/></g></g></svg>