<?xml version="1.0" encoding="utf-8"?>
<!-- Generator: Adobe Illustrator 20.0.0, SVG Export Plug-In . SVG Version: 6.00 Build 0)  -->
<svg version="1.1" id="Layer_1" xmlns="http://www.w3.org/2000/svg" xmlns:xlink="http://www.w3.org/1999/xlink" x="0px" y="0px"
	 viewBox="0 0 35.3 35.8" style="enable-background:new 0 0 35.3 35.8;" xml:space="preserve">
<style type="text/css">
	.st0{opacity:0.08;clip-path:url(#SVGID_2_);fill:#F6F4F0;}
</style>
<g>
	<g>
		<defs>
			<rect id="SVGID_1_" width="35.3" height="35.8"/>
		</defs>
		<clipPath id="SVGID_2_">
			<use xlink:href="#SVGID_1_"  style="overflow:visible;"/>
		</clipPath>
		<path class="st0" d="M31.7,31.8c-0.4-0.9-0.5-1.9-0.2-3c0.1-0.5,0.4-0.9,0.5-1.3c0.3-0.4,0.5-0.9,0.6-1.4c0.3-1.1,0.2-2.1-0.2-3
			s-0.5-1.9-0.2-3c0.1-0.5,0.4-0.9,0.5-1.3c0.3-0.4,0.5-0.9,0.6-1.4c0.3-1.1,0.2-2.1-0.2-3s-0.5-1.9-0.2-3c0.1-0.5,0.4-0.9,0.5-1.3
			c0.3-0.4,0.5-0.9,0.6-1.4c0.3-1.1,0.2-2.1-0.2-3c0-0.2-0.1-0.7-0.2-1.2l-2.8-1.4c0,0.5-0.1,1.1,0.1,1.6c0.2,0.9,0.1,2-0.4,2.9
			c-0.2,0.4-0.5,0.8-0.9,1.2c-0.3,0.3-0.5,0.6-0.8,1.1c-0.5,1-0.6,2.1-0.4,2.9s0.1,2-0.4,2.9c-0.2,0.4-0.5,0.8-0.9,1.2
			c-0.3,0.3-0.6,0.7-0.8,1.2c-0.5,1-0.6,2.1-0.4,2.9c0.2,0.9,0.1,2-0.4,2.9c-0.2,0.4-0.5,0.8-0.9,1.2c-0.3,0.3-0.6,0.7-0.8,1.2
			c-0.5,1-0.6,2.1-0.4,2.9c0.2,0.9,0.1,2-0.4,2.9c-0.2,0.4-0.5,0.8-0.9,1.2c-0.2,0.4-0.4,0.8-0.6,1.2s-0.3,0.8-0.4,1.2
			c3.5,0.1,6.9-0.5,10.1-1.9C32.1,33.4,32,32.5,31.7,31.8 M21.6,6.1C21.8,5.6,22,5.2,22,4.7c0.1-0.5,0.3-1,0.5-1.4
			c0.5-1,1.3-1.7,2.2-2c0.5-0.1,0.9-0.4,1.3-0.8l-2.8-1.4c-0.4,0.2-0.9,0.4-1.3,0.6c-1,0.2-1.8,0.7-2.5,1.6
			c-0.3,0.4-0.5,0.8-0.8,1.3s-0.4,0.8-0.7,1.2c-0.7,0.9-1.6,1.4-2.5,1.6c-0.9,0.2-1.8,0.7-2.5,1.6c-0.2,0.4-0.5,0.9-0.6,1.2
			c-0.2,0.4-0.4,0.8-0.7,1.2c-0.7,0.9-1.6,1.4-2.5,1.6c-0.9,0.2-1.8,0.7-2.5,1.6c-0.3,0.4-0.5,0.8-0.8,1.3S5.3,14.9,5,15.3
			c-0.7,0.9-1.6,1.4-2.5,1.6c-0.8,0.2-1.6,0.7-2.2,1.3c0.7,3.4,2.3,6.5,4.4,9.3c0.3-0.3,0.5-0.6,0.8-1.1c0.2-0.4,0.5-0.9,0.5-1.3
			c0.3-0.4,0.5-0.8,0.8-1.3c0.5-1,1.3-1.7,2.2-2c0.9-0.4,1.7-1.1,2.2-2c0.2-0.4,0.5-0.9,0.5-1.3c0.1-0.5,0.3-1,0.5-1.4
			c0.5-1,1.3-1.7,2.2-2c0.9-0.4,1.7-1.1,2.2-2c0.2-0.4,0.5-0.9,0.5-1.3c0.1-0.5,0.3-1,0.5-1.4c0.5-1,1.3-1.7,2.2-2
			C20.2,7.8,21.1,7.1,21.6,6.1 M18.5,31.1c-0.1-0.5,0-1,0.1-1.5c0.2-1.1,0.8-2,1.5-2.6c0.8-0.6,1.3-1.5,1.5-2.6
			c0.1-0.5,0.1-0.9,0.1-1.4c-0.1-0.5,0-1,0.1-1.5c0.2-1.1,0.8-2,1.5-2.6c0.8-0.6,1.3-1.5,1.5-2.6c0.1-0.5,0.1-0.9,0.1-1.4
			c-0.1-0.5,0-1,0.1-1.5c0.2-1.1,0.8-2,1.5-2.6c0.8-0.6,1.3-1.5,1.5-2.6c0.1-0.5,0.1-0.9,0.1-1.4c-0.1-0.2-0.1-0.7,0-1.3
			c0.2-1.1,0.8-2,1.5-2.6c0.2-0.1,0.2-0.2,0.4-0.4l-2.6-1.3c-0.3,0.3-0.7,0.7-1,0.8c-0.8,0.5-1.5,1.2-1.9,2.3
			c-0.2,0.4-0.3,1-0.3,1.5c-0.1,0.4-0.2,0.8-0.3,1.3c-0.4,1-1.1,1.8-1.9,2.3c-0.8,0.5-1.5,1.2-1.9,2.3c-0.2,0.4-0.3,1-0.3,1.5
			c0,0.4-0.1,0.9-0.4,1.4c-0.4,1-1.1,1.8-1.9,2.3s-1.5,1.2-1.9,2.3c-0.2,0.4-0.3,1-0.3,1.5c0,0.4-0.1,0.9-0.4,1.4
			c-0.4,1-1.1,1.8-1.9,2.3c-0.8,0.5-1.5,1.2-1.9,2.3c-0.2,0.4-0.3,1-0.3,1.5c0,0.4-0.1,0.9-0.4,1.4c-0.4,0.9-1,1.6-1.8,2.1
			c1.1,0.9,2.4,1.7,3.7,2.4c1.4,0.7,2.9,1.2,4.2,1.6c0.1-0.2,0.2-0.2,0.4-0.3c0.8-0.6,1.3-1.5,1.5-2.6C18.5,32,18.5,31.6,18.5,31.1"
			/>
	</g>
</g>
</svg>
