<svg xmlns="http://www.w3.org/2000/svg" width="21.501" height="14.818" viewBox="0 0 21.501 14.818"><defs><style>.a{fill:#fff;}</style></defs><g transform="translate(-11.67 -18.812)"><path class="a" d="M43.634,19.682a.564.564,0,1,0-.772.823,8.6,8.6,0,0,1,.4,12.153.564.564,0,0,0,.823.772A9.731,9.731,0,0,0,43.634,19.682Z" transform="translate(-13.54 -0.313)"/><path class="a" d="M40.464,22.962a.564.564,0,0,0-.772.823,5.989,5.989,0,0,1,.276,8.452.562.562,0,0,0,.794.794,7.116,7.116,0,0,0-.3-10.069Z" transform="translate(-12.156 -1.745)"/><path class="a" d="M37.245,26.232a.563.563,0,1,0-.766.823,3.381,3.381,0,0,1,.158,4.755.564.564,0,1,0,.8.794A4.507,4.507,0,0,0,37.245,26.232Z" transform="translate(-10.74 -3.161)"/><path class="a" d="M23.153,18.957a1.037,1.037,0,0,0-1.059,0l-5.73,3.414h-3.1a1.6,1.6,0,0,0-1.595,1.617V28.5a1.6,1.6,0,0,0,1.595,1.6h3.1L22.1,33.477a1.048,1.048,0,0,0,.563.152,1.071,1.071,0,0,0,.518-.141,1.042,1.042,0,0,0,.563-.918V19.876a1.042,1.042,0,0,0-.6-.918ZM15.941,28.986H13.264a.473.473,0,0,1-.468-.473V23.989a.473.473,0,0,1,.468-.473h2.676Zm6.62,3.5-5.493-3.257V23.256L22.561,20Z"/></g></svg>