<svg xmlns="http://www.w3.org/2000/svg" width="18.509" height="15" viewBox="0 0 18.509 15"><defs><style>.a{fill:none;}.b{fill:#d9620d;}</style></defs><g transform="translate(0 -0.65)"><path class="a" d="M11.9,6.433c0,.093.047.187.047.327v5.6a.911.911,0,0,1-.047.327v.093l5.366,3.033V3.4L11.9,6.433Z" transform="translate(-6.348 -1.467)"/><path class="a" d="M5.686,9.88a.473.473,0,0,0-.42-.28h-2.8A.441.441,0,0,0,2,10.067v5.6a.441.441,0,0,0,.467.467h2.8a.473.473,0,0,0,.42-.28Z" transform="translate(-1.067 -4.774)"/><path class="b" d="M11.618.72a.424.424,0,0,0-.467,0L5.039,4.173a1.3,1.3,0,0,0-.84-.28H1.4A1.375,1.375,0,0,0,0,5.292v5.6a1.375,1.375,0,0,0,1.4,1.4H4.2a1.573,1.573,0,0,0,.793-.233L11.151,15.6a.607.607,0,0,0,.467,0,.49.49,0,0,0,.233-.42V1.14A.557.557,0,0,0,11.618.72ZM4.2,11.358H1.4a.441.441,0,0,1-.467-.467v-5.6A.441.441,0,0,1,1.4,4.826H4.2a.473.473,0,0,1,.42.28v5.972A.408.408,0,0,1,4.2,11.358Zm6.719,2.986L5.552,11.265v-.093c0-.093.047-.187.047-.327v-5.6a.911.911,0,0,0-.047-.327v.047l5.366-3.033Z"/><path class="b" d="M31.011,9.533a.463.463,0,1,0-.7.607,4.726,4.726,0,0,1,1.166,2.986,2.95,2.95,0,0,1-1.166,2.146.454.454,0,0,0-.047.653.451.451,0,0,0,.653,0,3.859,3.859,0,0,0,1.446-2.8A5,5,0,0,0,31.011,9.533Z" transform="translate(-16.08 -4.66)"/><path class="b" d="M34.686,5.7a.5.5,0,0,0-.653-.093.415.415,0,0,0-.14.607c3.733,5.132.187,8.678.047,8.818a.451.451,0,0,0,0,.653.5.5,0,0,0,.327.14.424.424,0,0,0,.327-.14C34.64,15.685,38.886,11.439,34.686,5.7Z" transform="translate(-18.03 -2.601)"/></g></svg>