<svg xmlns="http://www.w3.org/2000/svg" width="18.341" height="15.542" viewBox="0 0 18.341 15.542"><defs><style>.a{fill:#fff;}</style></defs><g transform="translate(-14 15)"><path class="a" d="M19.755.047a3.177,3.177,0,0,0-3.174,3.174v.016H15.6a3.178,3.178,0,0,0-3.174,3.174V9.233a3.16,3.16,0,0,0,2.334,3.047l-1,2.589a.529.529,0,0,0,.494.72H28.778a.529.529,0,0,0,.493-.72l-.985-2.554a3.16,3.16,0,0,0,2.476-3.079V6.414a3.177,3.177,0,0,0-3.173-3.177H26.6V3.221A3.177,3.177,0,0,0,23.423.047Zm0,1.058h3.668A2.116,2.116,0,0,1,25.54,3.221v.016h-7.9V3.221a2.116,2.116,0,0,1,2.116-2.116ZM15.594,4.3H27.587A2.116,2.116,0,0,1,29.7,6.412V9.234a2.11,2.11,0,0,1-1.8,2.083l-.926-2.4a.529.529,0,0,0-.494-.339H16.546a.529.529,0,0,0-.494.339l-.917,2.376a2.11,2.11,0,0,1-1.657-2.058V6.412A2.116,2.116,0,0,1,15.594,4.3Zm1.314,5.34h9.209l1.888,4.893H15.02Zm1.727,1.693a.529.529,0,1,0,0,1.058H24.5a.529.529,0,1,0,0-1.058Z" transform="translate(1.579 -15.047)"/></g></svg>