<svg xmlns="http://www.w3.org/2000/svg" width="16.375" height="15.543" viewBox="0 0 16.375 15.543"><defs><style>.a{fill:none;}.b{fill:#d9620d;}</style></defs><rect class="a" width="7.794" height="3.485" transform="translate(4.31 0.871)"/><rect class="a" width="6.052" height="4.31" transform="translate(5.181 10.408)"/><path class="a" d="M15.426,11.3H3.092A1.184,1.184,0,0,0,1.9,12.492v4.493a1.184,1.184,0,0,0,1.192,1.192H5.339V16.022a.411.411,0,0,1,.413-.413h6.923a.411.411,0,0,1,.413.413v2.155h2.247a1.184,1.184,0,0,0,1.192-1.192V12.538A1.1,1.1,0,0,0,15.426,11.3Z" transform="translate(-1.029 -6.119)"/><path class="b" d="M14.4,4.31H13.021V.413A.411.411,0,0,0,12.609,0H3.9a.411.411,0,0,0-.413.413v3.9H2.109A2.1,2.1,0,0,0,0,6.419H0v4.493a2.055,2.055,0,0,0,2.063,2.063H4.31V15.13a.411.411,0,0,0,.413.413h6.923a.411.411,0,0,0,.413-.413V12.975h2.247a2.055,2.055,0,0,0,2.063-2.063h0V6.419A1.963,1.963,0,0,0,14.4,4.31ZM4.31.871H12.1V4.356H4.31Zm6.969,13.847h-6.1v-4.31h6.052v4.31Zm4.31-3.806A1.184,1.184,0,0,1,14.4,12.1H12.15V9.949a.411.411,0,0,0-.413-.413H4.768a.411.411,0,0,0-.413.413V12.1H2.063A1.184,1.184,0,0,1,.871,10.912V6.419A1.184,1.184,0,0,1,2.063,5.227H14.351a1.184,1.184,0,0,1,1.192,1.192v4.493Z"/></svg>