<?xml version="1.0" encoding="iso-8859-1"?>
<svg version="1.1" id="Layer_1" xmlns="http://www.w3.org/2000/svg" xmlns:xlink="http://www.w3.org/1999/xlink" x="0px" y="0px"
	 viewBox="0 0 512 512" style="enable-background:new 0 0 512 512;" xml:space="preserve">
	<g>
		<path fill="currentColor" d="M500.044,184H354.14L295.196,10.844C292.988,4.356,286.9,0,280.052,0c-1.752,0-3.488,0.288-5.156,0.856
			c-4.044,1.376-7.312,4.248-9.2,8.08c-1.892,3.836-2.168,8.172-0.788,12.22L320.34,184H191.76l55.436-162.844
			c1.38-4.048,1.1-8.384-0.788-12.22c-1.888-3.832-5.156-6.704-9.196-8.08C235.54,0.288,233.804,0,232.052,0
			c-6.848,0-12.936,4.356-15.144,10.844L157.96,184H12.052C5.432,184,0,189.384,0,196v8c0,6.616,5.432,12,12.052,12h0.888
			l49.844,286.06c1.004,5.748,5.992,9.94,11.824,9.94h42.424c0.008,0,0.016,0,0.024,0c0.012,0,0.024,0,0.036,0h277.916
			c0.012,0,0.024,0,0.036,0c0.008,0,0.016,0,0.024,0h42.428c5.828,0,10.816-4.196,11.82-9.94L499.156,216h0.888
			c6.616,0,11.956-5.38,11.956-12v-8C512,189.384,506.66,184,500.044,184z M379.22,224h33.332l-2.576,24h-32.364L379.22,224z
			 M132.872,224l1.608,24h-32.364l-2.58-24H132.872z M38.692,224h36.716l2.572,24h-35.1L38.692,224z M47.056,272h33.496l2.572,24
			H51.24L47.056,272z M59.6,344l-4.18-24H85.7l2.576,24H59.6z M63.784,368h27.06l2.58,24H67.968L63.784,368z M72.148,416h23.844
			l2.576,24H76.332L72.148,416z M84.696,488l-4.184-24h20.628l2.576,24H84.696z M104.688,272h31.4l1.608,24h-30.432L104.688,272z
			 M109.836,320h29.468l1.612,24h-28.504L109.836,320z M114.984,368h27.54l1.608,24h-26.58L114.984,368z M120.132,416h25.608
			l1.608,24H122.7L120.132,416z M127.852,488l-2.572-24h23.676l1.608,24H127.852z M156.924,224h33.396l0.64,24h-32.428L156.924,224z
			 M160.14,272h31.464l0.64,24h-30.496L160.14,272z M163.36,320h29.532l0.644,24h-28.568L163.36,320z M166.58,368h27.6l0.64,24
			h-26.636L166.58,368z M169.792,416h25.672l0.644,24H171.4L169.792,416z M174.62,488l-1.612-24h23.744l0.644,24H174.62z M244,488
			h-22.592l-0.652-24H244V488z M244,440h-23.884l-0.644-24H244V440z M244,392h-25.172l-0.64-24H244V392z M244,344h-26.456l-0.644-24
			H244V344z M244,296h-27.744l-0.644-24H244V296z M244,248h-29.032l-0.64-24H244V248z M290.688,488H268v-24h23.336L290.688,488z
			 M291.976,440H268v-24h24.62L291.976,440z M293.268,392H268v-24h25.908L293.268,392z M294.552,344H268v-24h27.196L294.552,344z
			 M295.836,296H268v-24h28.48L295.836,296z M297.124,248H268v-24h29.764L297.124,248z M337.48,488h-22.776l0.64-24h23.744
			L337.48,488z M340.692,440h-24.708l0.644-24H342.3L340.692,440z M343.908,392h-26.636l0.64-24h27.6L343.908,392z M347.124,344
			H318.56l0.64-24h29.532L347.124,344z M350.344,296h-30.496l0.64-24h31.464L350.344,296z M353.564,248h-32.432l0.644-24h33.396
			L353.564,248z M384.24,488h-22.712l1.608-24h23.676L384.24,488z M389.388,440h-24.644l1.608-24h25.608L389.388,440z M394.54,392
			h-26.58l1.612-24h27.54L394.54,392z M399.68,344h-28.504l1.612-24h29.468L399.68,344z M404.832,296H374.4l1.608-24h31.4
			L404.832,296z M427.4,488h-19.02l2.576-24h20.628L427.4,488z M435.764,440h-22.24l2.576-24h23.844L435.764,440z M444.128,392
			h-25.456l2.576-24h27.06L444.128,392z M452.492,344H423.82l2.576-24h30.28L452.492,344z M460.856,296h-31.888l2.576-24h33.496
			L460.856,296z M469.22,248h-35.1l2.572-24h36.716L469.22,248z"/>
	</g>
</svg>
