<svg xmlns="http://www.w3.org/2000/svg" width="67.589" height="30.374" viewBox="0 0 67.589 30.374"><defs><style>.a{fill:#fff;}</style></defs><g transform="translate(-160.498 -2603.995)"><g transform="translate(-55.559 2210.293)"><g transform="translate(216.054 393.707)"><g transform="translate(0.025 24.947)"><path class="a" d="M278.286,446.424h.941l-2.274,2.506,2.841,2.774h-1.03l-2.686-2.605v2.6h-.762v-5.28h.762v2.419Z" transform="translate(-275.317 -446.349)"/><path class="a" d="M296.955,446.266a2.84,2.84,0,0,1,2.039.774,2.577,2.577,0,0,1,.814,1.944,2.531,2.531,0,0,1-.821,1.936,2.919,2.919,0,0,1-2.073.766,2.745,2.745,0,0,1-1.987-.766,2.546,2.546,0,0,1-.8-1.919,2.616,2.616,0,0,1,.8-1.96,2.791,2.791,0,0,1,2.028-.775Zm.029.717a2.045,2.045,0,0,0-1.489.568,1.932,1.932,0,0,0-.582,1.448,1.9,1.9,0,0,0,.583,1.425,2.169,2.169,0,0,0,2.938-.011,1.941,1.941,0,0,0,.59-1.443,1.9,1.9,0,0,0-.59-1.413,2.007,2.007,0,0,0-1.45-.574Z" transform="translate(-285.2 -446.266)"/><path class="a" d="M322.765,446.424h.715v5.28h-.761V447.6l-1.619,2.043h-.139l-1.638-2.043V451.7h-.759v-5.28h.729l1.741,2.169Z" transform="translate(-298.037 -446.349)"/><path class="a" d="M346.229,446.424h.713v5.28h-.759V447.6l-1.621,2.043h-.139l-1.637-2.043V451.7h-.761v-5.28h.733l1.737,2.169Z" transform="translate(-310.362 -446.349)"/><path class="a" d="M369.118,446.424h.76v3a3.611,3.611,0,0,1-.087.918,1.955,1.955,0,0,1-.218.516,1.747,1.747,0,0,1-.321.371,2.79,2.79,0,0,1-3.294,0,1.622,1.622,0,0,1-.32-.373,1.841,1.841,0,0,1-.214-.5,3.811,3.811,0,0,1-.084-.939v-2.993h.758v3a2.2,2.2,0,0,0,.171,1.037,1.2,1.2,0,0,0,.517.467,1.791,1.791,0,0,0,.819.175,1.649,1.649,0,0,0,1.093-.352,1.064,1.064,0,0,0,.321-.445,2.764,2.764,0,0,0,.1-.882Z" transform="translate(-322.61 -446.349)"/><path class="a" d="M392.111,446.424h.719v5.28h-.651l-3.538-4.07v4.07h-.708v-5.28h.608l3.569,4.1Z" transform="translate(-334.48 -446.349)"/><path class="a" d="M411.219,446.424h2.988v.674H411.98v1.607h2.153v.676H411.98v1.649h2.3v.673h-3.065Z" transform="translate(-346.713 -446.349)"/></g><path class="a" d="M290.175,415.619l-1.814,1.482q-.319-.332-2.251-2.5-1.486-1.668-4.214-4.773a2.031,2.031,0,0,0-.974-.7c-.46-.141-.7-.056-3.572-.056v-1.8a29.435,29.435,0,0,0,3.868-.11,3.943,3.943,0,0,0,1.927-1.115,4.675,4.675,0,0,0,.927-1.209,4.009,4.009,0,0,0,.4-1.928,3.142,3.142,0,0,0-.583-1.907,3.352,3.352,0,0,0-1.6-1.175,6.151,6.151,0,0,0-1.752-.381q-.922-.065-1.7-.065h-1.192q-.05,2.737-.066,4.825t-.011,2.95q0,1.972.028,5.353t.049,4.246h-2.378q.015-.863.045-3.341t.031-6.177v-2.659q0-1.942-.076-7.076c.1,0,.574-.012,1.44-.038s1.658-.039,2.388-.039a19.923,19.923,0,0,1,2.434.147,8.432,8.432,0,0,1,2.3.619,5.188,5.188,0,0,1,2.259,1.779,4.644,4.644,0,0,1,.834,2.761,5.408,5.408,0,0,1-1.251,3.5,7.672,7.672,0,0,1-2.386,1.928v.073q1.983,2.3,4.35,4.751Z" transform="translate(-275.264 -395.66)"/><path class="a" d="M318.56,413.854H308.184a6.282,6.282,0,0,0,.647,2.787,5.283,5.283,0,0,0,1.937,2.1,6.337,6.337,0,0,0,1.9.793,10.625,10.625,0,0,0,2.557.264c.544,0,1.044-.014,1.5-.047s.734-.054.84-.066l-.259,1.955c-.078.011-.331.025-.762.046s-.938.032-1.523.032a12.075,12.075,0,0,1-4-.6,7.6,7.6,0,0,1-2.8-1.647,7.476,7.476,0,0,1-1.586-2.246,6.939,6.939,0,0,1-.653-3.037,8.517,8.517,0,0,1,.486-2.964,8.073,8.073,0,0,1,1.466-2.462,5.7,5.7,0,0,1,2.1-1.509,6.625,6.625,0,0,1,2.607-.533,6.508,6.508,0,0,1,2.372.4,4.807,4.807,0,0,1,1.792,1.227,6.156,6.156,0,0,1,1.295,2.269,10.669,10.669,0,0,1,.46,3.238Zm-2.225-1.611a4.832,4.832,0,0,0-1.213-2.815,3.43,3.43,0,0,0-2.591-1.02,3.717,3.717,0,0,0-2.682,1.033,5.558,5.558,0,0,0-1.494,2.8Z" transform="translate(-291.401 -400.543)"/><path class="a" d="M349.846,407.4a6.835,6.835,0,0,1-4.286,6.582,12.045,12.045,0,0,1-2.921.8,26.529,26.529,0,0,1-3.94.249H337.42q.018-1.108.048-4.112t.028-7.232q0-2.587-.019-5.019t-.057-4.962h2.3l-.041,6.636a18.754,18.754,0,0,1,4.714.525,9.259,9.259,0,0,1,2.944,1.346,5.833,5.833,0,0,1,1.863,2.19A6.71,6.71,0,0,1,349.846,407.4Zm-2.3.053a4.389,4.389,0,0,0-.979-2.912,5.544,5.544,0,0,0-2.529-1.7,10.433,10.433,0,0,0-1.732-.425,12,12,0,0,0-1.918-.151h-.7c0,.21,0,.973-.018,2.288s-.018,2.4-.018,3.25c0,1.6.007,2.724.018,3.387s.018,1.329.018,2.007a16.129,16.129,0,0,0,2.885-.237,7.629,7.629,0,0,0,2.253-.74,4.907,4.907,0,0,0,2.052-1.927,5.686,5.686,0,0,0,.665-2.839Z" transform="translate(-307.918 -393.707)"/><path class="a" d="M371.292,398.87h-2.527v-2.494h2.527Zm-.152,17.33h-2.261q.018-.229.047-2.837t.029-4.307c0-.987-.006-2.076-.011-3.26s-.028-2.576-.065-4.17h2.261c-.018,1.382-.039,2.677-.051,3.883s-.025,2.276-.025,3.217q0,3.357.037,5.386C371.129,415.471,371.14,416.167,371.14,416.2Z" transform="translate(-324.385 -395.109)"/><path class="a" d="M383.557,414.8H381.3q.021-.171.05-4.206t.028-6.7q0-1.713-.011-4.326T381.3,393.7h2.262q-.035,2.219-.056,5.13t-.021,4.915q0,4.359.039,7.627T383.557,414.8Z" transform="translate(-330.967 -393.707)"/><path class="a" d="M403.724,415.018c-.058,0-.24,0-.548.008s-.553.006-.737.006a29.983,29.983,0,0,1-4.265-.235,10.652,10.652,0,0,1-3.011-.942,6.956,6.956,0,0,1-2.911-2.444,6.068,6.068,0,0,1-.994-3.392,6.889,6.889,0,0,1,1.111-3.874,7.343,7.343,0,0,1,3.2-2.637,11.538,11.538,0,0,1,2.816-.87,16.956,16.956,0,0,1,3.114-.3l-.039-6.636h2.262q0,.29-.04,4.029t-.036,7.576q0,3.035.027,5.487T403.724,415.018Zm-2.223-10.1v-2.653a14.489,14.489,0,0,0-2.724.245,9.6,9.6,0,0,0-2.185.658,5.13,5.13,0,0,0-2.238,1.888,5.187,5.187,0,0,0-.794,2.876,4.219,4.219,0,0,0,.767,2.54,5.459,5.459,0,0,0,1.9,1.664,8.563,8.563,0,0,0,2.246.8,12.538,12.538,0,0,0,2.616.265h.375q0-.131.018-2.145t.018-6.142Z" transform="translate(-336.202 -393.707)"/><path class="a" d="M290.175,415.619l-1.814,1.482q-.319-.332-2.251-2.5-1.486-1.668-4.214-4.773a2.031,2.031,0,0,0-.974-.7c-.46-.141-.7-.056-3.572-.056v-1.8a29.435,29.435,0,0,0,3.868-.11,3.943,3.943,0,0,0,1.927-1.115,4.675,4.675,0,0,0,.927-1.209,4.009,4.009,0,0,0,.4-1.928,3.142,3.142,0,0,0-.583-1.907,3.352,3.352,0,0,0-1.6-1.175,6.151,6.151,0,0,0-1.752-.381q-.922-.065-1.7-.065h-1.192q-.05,2.737-.066,4.825t-.011,2.95q0,1.972.028,5.353t.049,4.246h-2.378q.015-.863.045-3.341t.031-6.177v-2.659q0-1.942-.076-7.076c.1,0,.574-.012,1.44-.038s1.658-.039,2.388-.039a19.923,19.923,0,0,1,2.434.147,8.432,8.432,0,0,1,2.3.619,5.188,5.188,0,0,1,2.259,1.779,4.644,4.644,0,0,1,.834,2.761,5.408,5.408,0,0,1-1.251,3.5,7.672,7.672,0,0,1-2.386,1.928v.073q1.983,2.3,4.35,4.751Z" transform="translate(-275.264 -395.66)"/><path class="a" d="M318.56,413.854H308.184a6.282,6.282,0,0,0,.647,2.787,5.283,5.283,0,0,0,1.937,2.1,6.337,6.337,0,0,0,1.9.793,10.625,10.625,0,0,0,2.557.264c.544,0,1.044-.014,1.5-.047s.734-.054.84-.066l-.259,1.955c-.078.011-.331.025-.762.046s-.938.032-1.523.032a12.075,12.075,0,0,1-4-.6,7.6,7.6,0,0,1-2.8-1.647,7.476,7.476,0,0,1-1.586-2.246,6.939,6.939,0,0,1-.653-3.037,8.517,8.517,0,0,1,.486-2.964,8.073,8.073,0,0,1,1.466-2.462,5.7,5.7,0,0,1,2.1-1.509,6.625,6.625,0,0,1,2.607-.533,6.508,6.508,0,0,1,2.372.4,4.807,4.807,0,0,1,1.792,1.227,6.156,6.156,0,0,1,1.295,2.269,10.669,10.669,0,0,1,.46,3.238Zm-2.225-1.611a4.832,4.832,0,0,0-1.213-2.815,3.43,3.43,0,0,0-2.591-1.02,3.717,3.717,0,0,0-2.682,1.033,5.558,5.558,0,0,0-1.494,2.8Z" transform="translate(-291.401 -400.543)"/><path class="a" d="M349.846,407.4a6.835,6.835,0,0,1-4.286,6.582,12.045,12.045,0,0,1-2.921.8,26.529,26.529,0,0,1-3.94.249H337.42q.018-1.108.048-4.112t.028-7.232q0-2.587-.019-5.019t-.057-4.962h2.3l-.041,6.636a18.754,18.754,0,0,1,4.714.525,9.259,9.259,0,0,1,2.944,1.346,5.833,5.833,0,0,1,1.863,2.19A6.71,6.71,0,0,1,349.846,407.4Zm-2.3.053a4.389,4.389,0,0,0-.979-2.912,5.544,5.544,0,0,0-2.529-1.7,10.433,10.433,0,0,0-1.732-.425,12,12,0,0,0-1.918-.151h-.7c0,.21,0,.973-.018,2.288s-.018,2.4-.018,3.25c0,1.6.007,2.724.018,3.387s.018,1.329.018,2.007a16.129,16.129,0,0,0,2.885-.237,7.629,7.629,0,0,0,2.253-.74,4.907,4.907,0,0,0,2.052-1.927,5.686,5.686,0,0,0,.665-2.839Z" transform="translate(-307.918 -393.707)"/><path class="a" d="M371.292,398.87h-2.527v-2.494h2.527Zm-.152,17.33h-2.261q.018-.229.047-2.837t.029-4.307c0-.987-.006-2.076-.011-3.26s-.028-2.576-.065-4.17h2.261c-.018,1.382-.039,2.677-.051,3.883s-.025,2.276-.025,3.217q0,3.357.037,5.386C371.129,415.471,371.14,416.167,371.14,416.2Z" transform="translate(-324.385 -395.109)"/><path class="a" d="M383.557,414.8H381.3q.021-.171.05-4.206t.028-6.7q0-1.713-.011-4.326T381.3,393.7h2.262q-.035,2.219-.056,5.13t-.021,4.915q0,4.359.039,7.627T383.557,414.8Z" transform="translate(-330.967 -393.707)"/><path class="a" d="M403.724,415.018c-.058,0-.24,0-.548.008s-.553.006-.737.006a29.983,29.983,0,0,1-4.265-.235,10.652,10.652,0,0,1-3.011-.942,6.956,6.956,0,0,1-2.911-2.444,6.068,6.068,0,0,1-.994-3.392,6.889,6.889,0,0,1,1.111-3.874,7.343,7.343,0,0,1,3.2-2.637,11.538,11.538,0,0,1,2.816-.87,16.956,16.956,0,0,1,3.114-.3l-.039-6.636h2.262q0,.29-.04,4.029t-.036,7.576q0,3.035.027,5.487T403.724,415.018Zm-2.223-10.1v-2.653a14.489,14.489,0,0,0-2.724.245,9.6,9.6,0,0,0-2.185.658,5.13,5.13,0,0,0-2.238,1.888,5.187,5.187,0,0,0-.794,2.876,4.219,4.219,0,0,0,.767,2.54,5.459,5.459,0,0,0,1.9,1.664,8.563,8.563,0,0,0,2.246.8,12.538,12.538,0,0,0,2.616.265h.375q0-.131.018-2.145t.018-6.142Z" transform="translate(-336.202 -393.707)"/></g></g></g></svg>